<svg width="448" height="561" viewBox="0 0 448 561" fill="none" xmlns="http://www.w3.org/2000/svg">
<mask id="mask0_4083_18" style="mask-type:luminance" maskUnits="userSpaceOnUse" x="55" y="87" width="356" height="393">
<path d="M410.441 87.7427H55.9947V479.328H410.441V87.7427Z" fill="white"/>
</mask>
<g mask="url(#mask0_4083_18)">
<path d="M63.8112 272.08C70.7761 257.875 75.579 242.786 78.6206 227.296C81.1815 213.972 84.4646 195.752 88.1465 171.996C88.1465 171.996 91.2679 100.321 227.28 88.1209C227.28 88.1209 319.101 81.0582 357.687 158.592C372.816 188.929 374.417 224.085 364.09 256.35C354.723 285.646 338.153 325.695 336.391 357.64C334.951 383.886 338.073 402.185 341.755 414.144C345.038 424.899 349.121 438.624 358.407 444.805L410.441 479.317H187.413C189.814 474.903 191.897 470.327 192.697 466.717C192.697 466.717 198.14 431 174.203 425.141C170.842 424.337 167.32 424.499 163.957 425.3C160.916 426.024 156.352 426.986 151.068 427.709C127.453 430.92 105.118 415.831 99.5134 392.634C97.7522 385.491 95.3508 376.983 91.9082 367.754C91.9082 367.754 76.9392 363.659 89.3472 351.219C101.755 338.779 89.9077 348.571 88.6272 348.249C84.8634 347.125 79.3406 344.317 79.7416 337.494C79.7416 337.494 80.302 321.441 67.0123 315.744C67.0123 315.744 45.1581 310.204 63.9707 272.08H63.8112Z" fill="#5DB6ED"/>
</g>
<mask id="mask1_4083_18" style="mask-type:luminance" maskUnits="userSpaceOnUse" x="78" y="108" width="296" height="372">
<path d="M373.31 108.207H78.6207V479.449H373.31V108.207Z" fill="white"/>
</mask>
<g mask="url(#mask1_4083_18)">
<path d="M85.4241 273.768C91.3478 260.926 95.5126 247.36 98.0735 233.395C100.236 221.437 103.036 205.142 106.159 183.874C106.159 183.874 108.8 119.584 224.318 108.667C224.318 108.667 302.289 102.329 335.111 171.834C347.92 198.963 349.36 230.426 340.636 259.239C332.63 285.484 321.662 326.097 320.142 354.832C318.941 377.225 317.26 391.271 320.703 403.871C322.464 410.212 323.343 418.8 324.945 427.388C327.506 440.792 335.271 452.59 346.319 460.376L373.137 479.397H200.142C200.862 477.15 201.582 474.824 202.302 472.575C207.187 456.844 205.426 439.428 196.78 425.543C196.62 425.301 196.538 425.141 196.379 424.899C189.735 414.626 177.726 409.65 166.119 411.977C165.078 412.219 163.957 412.379 162.836 412.621C141.221 416.393 120.568 402.508 115.606 381.078C114.163 374.737 112.083 367.352 109.281 359.326C109.281 359.326 96.7133 355.713 106.959 344.639C107.841 343.675 107.52 342.15 106.239 341.668C103.036 340.625 98.5543 338.138 98.8733 332.117C98.8733 332.117 99.354 317.751 88.0669 312.614C88.0669 312.614 69.5734 307.718 85.3443 273.686L85.4241 273.768Z" fill="#4198D8"/>
</g>
<path d="M213.43 479.317C215.032 469.044 216.472 457.887 216.472 450.021C216.472 442.157 208.949 390.065 177.726 396.246C174.124 396.968 167.241 397.449 160.034 396.568C146.425 394.963 135.378 384.687 132.336 371.284C131.215 366.228 129.374 359.325 126.412 350.658C126.412 350.658 116.166 347.527 124.17 338.055C124.972 337.094 124.491 335.569 123.291 335.247C113.924 332.358 122.571 317.991 108.641 309.483C108.641 309.483 93.1113 305.149 106.479 274.891C139.54 211.725 84.1437 152.331 222.637 129.296C266.746 121.429 346.398 175.124 319.901 262.449C313.257 285.646 304.05 321.281 302.85 346.563C301.569 372.247 303.811 397.612 308.534 415.027C309.815 419.683 310.776 426.024 311.897 432.765C315.018 450.745 325.025 466.715 339.755 477.472L342.236 479.317H213.35H213.43Z" fill="#1F6FB8"/>
<path d="M121.848 275.852C126.093 265.741 129.055 254.984 130.816 243.99C132.336 234.518 134.338 221.676 136.578 204.902C136.578 204.902 138.421 154.176 220.554 145.588C220.554 145.588 276.033 140.612 299.327 195.43C308.454 216.86 309.495 241.663 303.25 264.376C297.566 285.084 289.801 317.107 288.68 339.823C287.88 357.48 285.96 377.787 287.721 387.898C287.721 388.06 287.721 388.22 287.801 388.38C290.361 403.149 291.642 419.201 294.845 434.852C298.206 451.306 305.492 466.475 315.979 479.317H228.561C232.723 454.836 233.284 418.959 209.427 393.677C203.503 387.418 187.493 383.082 179.247 384.929C178.206 385.169 177.085 385.331 175.885 385.491C161.556 386.774 148.508 377.063 144.744 363.098C143.463 358.444 141.543 351.861 138.9 343.433C138.9 343.433 130.176 340.624 136.979 332.198C137.699 331.235 137.46 329.869 136.339 329.387C134.097 328.506 131.295 326.419 131.536 322.005C131.536 322.005 131.855 310.686 123.851 306.594C123.851 306.594 110.721 302.742 121.93 275.852H121.848Z" fill="#0F599A"/>
<path d="M274.11 325.777C273.47 340.062 274.11 383.806 275.472 391.992C275.472 392.152 275.472 392.234 275.472 392.394C278.995 412.298 282.036 454.115 292.683 479.237H242.409C244.331 449.941 243.37 404.512 222.716 382.52C217.914 377.465 194.859 367.431 184.451 368.555C176.766 369.439 162.677 365.988 158.273 355.553C158.273 355.553 157.393 343.755 152.59 328.666C152.59 328.666 145.546 326.419 151.068 319.516C151.709 318.794 151.469 317.589 150.588 317.269C148.827 316.545 146.505 314.86 146.667 311.248C146.667 311.248 146.986 302.098 140.422 298.808C140.422 298.808 129.775 295.677 138.82 273.927C142.263 265.741 145.065 252.577 146.505 243.668C147.785 236.043 149.387 225.61 151.148 211.964C151.148 211.964 152.67 170.872 219.194 163.887C219.194 163.887 264.103 159.875 282.996 204.26C290.361 221.596 290.842 246.156 285.798 264.536C281.234 281.312 274.912 307.236 274.03 325.615L274.11 325.777Z" fill="#004993"/>
<path d="M258.58 314.138C258.179 322.085 257.619 339.019 257.619 351.139C257.619 356.838 262.422 412.218 267.466 438.866C270.348 454.115 271.549 467.358 273.871 479.157H258.421C257.138 455.56 254.338 420.886 247.854 398.735C239.128 369.117 194.697 354.19 186.372 355.151C180.289 355.875 170.441 346.965 166.999 338.457C166.999 338.457 166.359 328.826 162.517 316.465C162.517 316.465 156.912 314.62 161.317 309.001C161.795 308.359 161.636 307.476 160.916 307.156C159.473 306.594 157.712 305.229 157.794 302.26C157.794 302.26 158.033 294.716 152.83 292.067C152.83 292.067 144.425 289.498 151.629 271.68C154.352 265.017 156.512 254.263 157.712 246.878C158.674 240.619 159.954 232.111 161.396 220.954C161.396 220.954 162.597 187.324 215.271 181.627C215.271 181.627 250.816 178.334 265.785 214.693C271.629 228.901 272.03 248.965 268.027 264.054C264.424 277.78 259.38 299.05 258.66 314.059L258.58 314.138Z" fill="#0C3457"/>
<path d="M236.166 363.339C224.879 341.989 196.939 334.203 190.614 334.927C185.971 335.489 178.528 328.506 175.885 321.843C175.885 321.843 175.404 314.298 172.442 304.587C172.442 304.587 168.2 303.142 171.483 298.728C171.882 298.246 171.722 297.524 171.162 297.282C170.121 296.803 168.681 295.759 168.84 293.43C168.84 293.43 169.002 287.571 165.078 285.404C165.078 285.404 158.674 283.399 164.117 269.431C166.199 264.216 167.881 255.788 168.76 250.009C169.48 245.113 170.442 238.452 171.563 229.702C171.563 229.702 172.442 203.377 212.551 198.883C212.551 198.883 239.609 196.314 250.975 224.806C255.377 235.963 255.699 251.694 252.657 263.492C249.854 274.247 246.093 290.944 245.532 302.66C245.131 311.812 244.332 336.21 245.131 341.428C245.131 341.508 245.131 343.435 245.131 343.515C246.653 352.585 249.214 388.3 235.925 363.26L236.166 363.339Z" fill="#072A3F"/>
<path d="M225.679 331.956C218.233 316.625 199.582 314.059 195.419 314.54C192.376 314.94 187.413 309.964 185.652 305.149C185.652 305.149 185.331 299.691 183.41 292.788C183.41 292.788 180.608 291.745 182.77 288.614C183.009 288.295 182.929 287.733 182.531 287.571C181.808 287.251 180.929 286.447 181.009 284.842C181.009 284.842 181.088 280.588 178.528 279.145C178.528 279.145 174.285 277.7 177.887 267.666C179.248 263.894 180.368 257.875 180.929 253.701C181.41 250.168 182.05 245.353 182.77 239.094C182.77 239.094 183.41 220.151 209.908 216.94C209.908 216.94 227.841 215.095 235.364 235.561C238.326 243.588 238.488 254.824 236.485 263.332C234.644 271.037 232.163 282.997 231.762 291.505C231.523 298.086 231.122 312.533 231.682 316.305C231.682 316.305 231.682 317.751 231.682 317.831C232.644 324.332 234.405 350.016 225.599 332.036L225.679 331.956Z" fill="#042333"/>
<path d="M218.073 306.674C213.35 296.401 201.582 294.634 199.021 295.035C197.099 295.277 193.977 291.987 192.856 288.777C192.856 288.777 192.617 285.164 191.416 280.508C191.416 280.508 189.655 279.787 191.015 277.7C191.175 277.458 191.095 277.138 190.856 276.978C190.375 276.736 189.815 276.254 189.894 275.131C189.894 275.131 189.894 272.322 188.293 271.279C188.293 271.279 185.652 270.315 187.894 263.572C188.773 261.085 189.414 256.991 189.815 254.263C190.136 251.936 190.535 248.725 191.015 244.471C191.015 244.471 191.416 231.789 208.146 229.622C208.146 229.622 219.433 228.339 224.157 242.062C226 247.44 226.159 254.984 224.879 260.684C223.758 265.901 222.156 273.848 221.917 279.545C221.755 283.961 221.516 293.672 221.917 296.239C221.917 296.239 221.917 297.202 221.917 297.282C222.557 301.698 223.596 318.874 218.073 306.754V306.674Z" fill="#00171E"/>
<path d="M211.108 285.484C208.948 280.186 203.503 279.305 202.223 279.465C201.343 279.625 199.901 277.859 199.341 276.174C199.341 276.174 199.261 274.329 198.7 271.92C198.7 271.92 197.901 271.598 198.541 270.475C198.541 270.395 198.541 270.155 198.541 270.075C198.299 269.993 198.06 269.673 198.06 269.112C198.06 269.112 198.06 267.666 197.34 267.104C197.34 267.104 196.06 266.623 197.181 263.092C197.579 261.807 197.901 259.72 198.06 258.277C198.22 257.071 198.381 255.386 198.621 253.219C198.621 253.219 198.78 246.638 206.545 245.515C206.545 245.515 211.749 244.873 213.991 251.936C214.872 254.744 214.872 258.596 214.312 261.567C213.751 264.216 213.029 268.388 212.949 271.279C212.949 273.525 212.79 278.581 212.949 279.867V280.348C213.271 282.595 213.751 291.505 211.188 285.244L211.108 285.484Z" fill="black"/>
</svg>
