<svg width="23" height="21" viewBox="0 0 23 21" fill="none" xmlns="http://www.w3.org/2000/svg">
<path fill-rule="evenodd" clip-rule="evenodd" d="M14.5542 20.6909L7.41364 17.1205L1.18671 20.6788C0.71863 20.9463 0.13623 20.6083 0.13623 20.0692V5.09043C0.13623 4.83846 0.27124 4.60582 0.49 4.48081L7.03249 0.742248C7.13755 0.679598 7.26035 0.643618 7.39155 0.643618C7.50948 0.643618 7.62061 0.672688 7.71818 0.724058L14.8588 4.29438L21.0857 0.736128C21.5538 0.468648 22.1362 0.806638 22.1362 1.34575V16.3245C22.1362 16.5765 22.0012 16.8091 21.7824 16.9341L15.2399 20.6727C15.1349 20.7353 15.0121 20.7713 14.8809 20.7713C14.763 20.7713 14.6518 20.7422 14.5542 20.6909ZM14.1788 5.52436L8.09368 2.48181V15.8906L14.1788 18.9331V5.52436ZM15.583 5.49789V18.8593L20.7319 15.917V2.55564L15.583 5.49789ZM6.68942 2.55564L1.54049 5.49789V18.8593L6.68942 15.917V2.55564Z" fill="white"/>
</svg>
