<svg width="19" height="26" viewBox="0 0 19 26" fill="none" xmlns="http://www.w3.org/2000/svg">
<path d="M0.34048 9.875C0.316433 9.61758 0.304199 9.35742 0.304199 9.09375C0.304621 4.34766 4.30906 0.5 9.24837 0.5C14.1877 0.5 18.1921 4.34766 18.1921 9.09375C18.1921 9.35703 18.1799 9.61758 18.1558 9.875H18.1921C18.1921 14.5715 9.24837 25.5 9.24837 25.5C9.24837 25.5 0.304621 14.5973 0.304621 9.875H0.34048ZM9.24837 11.4375C11.1675 11.4875 12.7681 10.0895 12.8259 8.3125C12.7681 6.53555 11.1675 5.1375 9.24837 5.1875C7.32926 5.1375 5.72867 6.53555 5.67087 8.3125C5.72867 10.0895 7.32926 11.4875 9.24837 11.4375Z" fill="#2CBEFF"/>
</svg>
