<svg width="25" height="24" viewBox="0 0 25 24" fill="none" xmlns="http://www.w3.org/2000/svg">
<path d="M1.65161 4.06044C1.65161 14.5231 10.1333 23.0049 20.5961 23.0049C21.0681 23.0049 21.5361 22.9876 21.9995 22.9537C22.5313 22.9147 22.7972 22.8953 23.0393 22.7559C23.2397 22.6405 23.4298 22.4359 23.5302 22.2275C23.6516 21.976 23.6516 21.6826 23.6516 21.0958V17.6524C23.6516 17.1589 23.6516 16.9121 23.5703 16.7007C23.4987 16.5138 23.3821 16.3474 23.231 16.2162C23.0601 16.0675 22.8281 15.9832 22.3644 15.8145L18.4449 14.3893C17.9053 14.1931 17.6355 14.095 17.3795 14.1116C17.1538 14.1263 16.9366 14.2034 16.752 14.3342C16.5428 14.4824 16.3952 14.7286 16.0997 15.221L15.0961 16.8938C11.8573 15.427 9.23171 12.798 7.76272 9.56044L9.43549 8.55677C9.92783 8.26137 10.174 8.11367 10.3223 7.9044C10.4531 7.71987 10.5302 7.50267 10.5449 7.27696C10.5615 7.02099 10.4633 6.7512 10.2672 6.21161L8.84193 2.29214C8.67328 1.82837 8.58896 1.59648 8.44035 1.42545C8.30907 1.27437 8.1427 1.15784 7.95586 1.0861C7.74434 1.00488 7.4976 1.00488 7.00411 1.00488H3.56073C2.97391 1.00488 2.68049 1.00488 2.42892 1.12619C2.22056 1.22667 2.016 1.41678 1.90058 1.61725C1.76122 1.8593 1.74175 2.1252 1.70281 2.657C1.66888 3.12038 1.65161 3.58839 1.65161 4.06044Z" stroke="white" stroke-width="1.5" stroke-linecap="round" stroke-linejoin="round"/>
</svg>
