<svg width="24" height="24" viewBox="0 0 24 24" fill="none" xmlns="http://www.w3.org/2000/svg">
<path d="M17.7589 13.7953C17.7121 13.7729 15.9624 12.9113 15.6515 12.7994C15.5246 12.7538 15.3886 12.7093 15.244 12.7093C15.0077 12.7093 14.8093 12.8271 14.6547 13.0583C14.4799 13.3181 13.9508 13.9366 13.7873 14.1214C13.766 14.1457 13.7368 14.1749 13.7194 14.1749C13.7037 14.1749 13.4329 14.0634 13.351 14.0278C11.4741 13.2125 10.0494 11.2519 9.85405 10.9212C9.82616 10.8737 9.82499 10.8521 9.82476 10.8521C9.83161 10.827 9.89473 10.7637 9.9273 10.731C10.0226 10.6368 10.1258 10.5125 10.2257 10.3922C10.273 10.3353 10.3204 10.2782 10.3669 10.2245C10.5119 10.0558 10.5764 9.92494 10.6512 9.7733L10.6904 9.69452C10.873 9.33164 10.717 9.0254 10.6666 8.92652C10.6252 8.84377 9.88647 7.06076 9.80792 6.87343C9.61904 6.4214 9.36946 6.21094 9.02263 6.21094C8.99044 6.21094 9.02263 6.21094 8.88766 6.21663C8.72333 6.22356 7.82839 6.34138 7.4327 6.59081C7.01309 6.85535 6.30322 7.69863 6.30322 9.18164C6.30322 10.5164 7.15024 11.7766 7.5139 12.2559C7.52294 12.268 7.53953 12.2925 7.56361 12.3277C8.95631 14.3617 10.6925 15.869 12.4525 16.5721C14.1469 17.2489 14.9493 17.3271 15.4055 17.3271H15.4055C15.5972 17.3271 15.7507 17.3121 15.886 17.2988L15.9719 17.2906C16.5572 17.2387 17.8436 16.5722 18.1362 15.759C18.3667 15.1186 18.4274 14.4189 18.2741 14.1649C18.169 13.9922 17.988 13.9054 17.7589 13.7953Z" fill="white"/>
<path d="M12.213 0.00488281C5.71307 0.00488281 0.424969 5.25325 0.424969 11.7043C0.424969 13.7909 0.983358 15.8333 2.04115 17.6208L0.0165014 23.5931C-0.0212129 23.7045 0.00683904 23.8276 0.0892027 23.9115C0.148657 23.9722 0.229307 24.0049 0.31167 24.0049C0.343229 24.0049 0.375021 24.0001 0.406034 23.9902L6.63357 22.0113C8.33772 22.9218 10.2638 23.4025 12.2131 23.4025C18.7124 23.4025 24 18.1547 24 11.7043C24 5.25325 18.7124 0.00488281 12.213 0.00488281ZM12.213 20.9655C10.3788 20.9655 8.60227 20.4358 7.07515 19.4337C7.0238 19.4 6.96419 19.3827 6.90419 19.3827C6.87247 19.3827 6.84068 19.3875 6.80975 19.3974L3.69014 20.389L4.6972 17.4179C4.72977 17.3217 4.71349 17.2157 4.65349 17.1337C3.49058 15.5447 2.87585 13.6674 2.87585 11.7043C2.87585 6.59709 7.06448 2.44197 12.2129 2.44197C17.3608 2.44197 21.5489 6.59709 21.5489 11.7043C21.549 16.811 17.3609 20.9655 12.213 20.9655Z" fill="white"/>
</svg>
